<svg version="1.1" id="Layer_1" xmlns="http://www.w3.org/2000/svg" xmlns:xlink="http://www.w3.org/1999/xlink" x="0px" y="0px"
	 width="100%" viewBox="0 0 500 500" enable-background="new 0 0 500 500" xml:space="preserve">
<path fill="#000000" opacity="1.000000" stroke="none" 
	d="
M272.000000,501.000000 
	C181.333359,501.000000 91.166710,501.000000 1.000048,501.000000 
	C1.000032,334.333405 1.000032,167.666794 1.000016,1.000138 
	C167.666565,1.000092 334.333130,1.000092 500.999756,1.000046 
	C500.999847,167.666519 500.999847,334.333038 500.999939,500.999786 
	C424.833344,501.000000 348.666656,501.000000 272.000000,501.000000 
M345.227051,238.980392 
	C340.854401,236.843536 336.354004,234.922607 332.178986,232.451782 
	C330.732849,231.595947 330.094330,229.375381 329.086914,227.778168 
	C330.845398,226.850784 332.670868,225.042740 334.349152,225.170349 
	C338.466736,225.483459 342.516510,226.688797 347.085571,227.637314 
	C348.672607,224.497833 350.404785,221.071228 352.644897,216.639832 
	C347.338501,214.994171 342.672455,213.185684 337.841919,212.129272 
	C329.490234,210.302765 318.852692,216.179703 316.164551,223.686966 
	C313.364258,231.507401 317.499786,239.561600 326.556244,244.205002 
	C329.893433,245.916061 333.251251,247.679611 336.266449,249.876541 
	C337.345642,250.662857 337.744385,252.773346 337.864960,254.325180 
	C337.928070,255.136856 336.712341,256.792908 336.079041,256.790497 
	C332.496521,256.776917 328.821228,256.784485 325.362213,255.985428 
	C322.316925,255.281937 318.965454,251.922913 316.753815,252.678253 
	C314.403015,253.481094 313.234070,257.744720 311.521332,260.542480 
	C307.646820,255.891251 303.817688,251.294510 300.127136,246.864151 
	C301.624542,245.599991 302.427521,244.755341 303.380402,244.144547 
	C309.829285,240.010834 312.583221,230.932541 309.707886,223.473007 
	C307.756134,218.409500 300.943939,212.225174 292.439819,212.964279 
	C285.775635,213.543488 279.087219,213.843719 271.912537,214.299484 
	C271.912537,227.338654 271.912537,241.146545 271.912537,255.778778 
	C265.849030,241.008163 260.144073,227.111053 254.308228,212.895035 
	C250.029526,213.282242 245.704559,213.673630 241.366486,214.066193 
	C236.522232,225.994568 231.589188,238.141586 226.134323,251.573517 
	C224.840714,237.851761 223.676636,225.504120 222.547073,213.522552 
	C217.604904,213.522552 212.750748,213.522552 207.800766,213.522552 
	C204.044876,223.528793 200.339523,233.400391 196.341492,244.051743 
	C192.172516,233.081970 188.308929,222.915771 184.716507,213.463028 
	C179.179626,213.783081 174.651413,214.044830 170.008133,214.313232 
	C168.277328,232.948044 166.581955,251.201355 164.836792,269.990631 
	C168.577316,269.990631 171.716431,269.833618 174.832748,270.032837 
	C178.251633,270.251434 178.917969,268.618683 179.073868,265.543182 
	C179.507706,256.984131 180.324326,248.444473 180.989761,239.897171 
	C184.894028,248.687531 187.900528,257.565399 191.079468,266.381073 
	C191.521973,267.608154 192.946396,269.522797 193.690186,269.423645 
	C197.381912,268.931366 202.090347,269.860138 202.689224,263.859680 
	C202.974579,261.000732 204.074707,258.187378 205.051926,255.440994 
	C206.787048,250.564621 208.709732,245.755005 210.553940,240.917465 
	C211.057083,241.027359 211.560226,241.137268 212.063370,241.247162 
	C212.375153,248.922821 212.824799,256.596375 212.941696,264.274994 
	C213.001953,268.234436 213.897064,270.584167 218.565704,270.062836 
	C221.857529,269.695221 225.268738,269.644257 228.545731,270.071899 
	C233.502426,270.718811 235.371475,268.197418 235.995590,263.913788 
	C236.493073,260.499268 238.030716,258.711395 241.894211,258.927124 
	C247.365906,259.232605 252.867371,259.004578 258.265472,259.004578 
	C262.483246,269.990570 262.483246,269.990601 274.101746,269.990631 
	C274.268402,269.990631 274.435120,269.994019 274.601685,269.990112 
	C287.869629,269.679230 285.826477,272.613861 285.978546,257.736450 
	C285.988312,256.781799 285.532074,255.831100 285.444794,254.864807 
	C285.301880,253.282715 285.284058,251.689316 285.213470,250.100693 
	C288.700653,253.236145 291.092651,256.500946 293.370850,259.843353 
	C298.188965,266.912048 303.847717,272.753326 313.340027,269.865051 
	C318.358948,268.337891 322.974640,269.623169 327.768829,270.009674 
	C334.724823,270.570465 341.468719,269.681854 348.470367,267.846466 
	C357.991943,269.099030 365.319763,266.259705 370.393524,257.507050 
	C372.175262,254.433472 375.640381,251.967712 378.864685,250.172440 
	C386.330444,246.015549 394.192505,242.575684 401.729980,238.539047 
	C403.944916,237.352859 405.610107,235.140137 407.871063,233.085464 
	C405.399414,231.980728 403.872833,231.298386 402.292297,230.591934 
	C404.050568,227.166748 411.053528,226.056091 405.695526,220.433060 
	C407.595886,219.031403 409.352722,218.058563 410.662750,216.665482 
	C411.681458,215.582199 412.143219,213.975189 412.852509,212.600937 
	C411.165100,211.762039 409.441742,210.182419 407.798950,210.262192 
	C405.480560,210.374786 403.258392,211.845901 400.928497,212.498230 
	C397.845093,213.361557 393.797485,215.516968 391.806183,214.339752 
	C389.346100,212.885376 388.104767,213.378174 386.364044,214.327255 
	C384.025146,215.602448 382.000305,217.551071 378.899719,216.129044 
	C378.265564,215.838211 376.922180,216.909851 375.987579,217.486237 
	C365.498871,223.955170 357.602661,234.057083 345.227051,238.980392 
z"/>
<path fill="#FF3030" opacity="1.000000" stroke="none" 
	d="
M347.986481,267.160492 
	C341.468719,269.681854 334.724823,270.570465 327.768829,270.009674 
	C322.974640,269.623169 318.358948,268.337891 313.340027,269.865051 
	C303.847717,272.753326 298.188965,266.912048 293.370850,259.843353 
	C291.092651,256.500946 288.700653,253.236145 285.213470,250.100693 
	C285.284058,251.689316 285.301880,253.282715 285.444794,254.864807 
	C285.532074,255.831100 285.988312,256.781799 285.978546,257.736450 
	C285.826477,272.613861 287.869629,269.679230 274.601685,269.990112 
	C274.435120,269.994019 274.268402,269.990631 274.101746,269.990631 
	C262.483246,269.990601 262.483246,269.990570 258.265472,259.004578 
	C252.867371,259.004578 247.365906,259.232605 241.894211,258.927124 
	C238.030716,258.711395 236.493073,260.499268 235.995590,263.913788 
	C235.371475,268.197418 233.502426,270.718811 228.545731,270.071899 
	C225.268738,269.644257 221.857529,269.695221 218.565704,270.062836 
	C213.897064,270.584167 213.001953,268.234436 212.941696,264.274994 
	C212.824799,256.596375 212.375153,248.922821 212.063370,241.247162 
	C211.560226,241.137268 211.057083,241.027359 210.553940,240.917465 
	C208.709732,245.755005 206.787048,250.564621 205.051926,255.440994 
	C204.074707,258.187378 202.974579,261.000732 202.689224,263.859680 
	C202.090347,269.860138 197.381912,268.931366 193.690186,269.423645 
	C192.946396,269.522797 191.521973,267.608154 191.079468,266.381073 
	C187.900528,257.565399 184.894028,248.687531 180.989761,239.897171 
	C180.324326,248.444473 179.507706,256.984131 179.073868,265.543182 
	C178.917969,268.618683 178.251633,270.251434 174.832748,270.032837 
	C171.716431,269.833618 168.577316,269.990631 164.836792,269.990631 
	C166.581955,251.201355 168.277328,232.948044 170.008133,214.313232 
	C174.651413,214.044830 179.179626,213.783081 184.716507,213.463028 
	C188.308929,222.915771 192.172516,233.081970 196.341492,244.051743 
	C200.339523,233.400391 204.044876,223.528793 207.800766,213.522552 
	C212.750748,213.522552 217.604904,213.522552 222.547073,213.522552 
	C223.676636,225.504120 224.840714,237.851761 226.134323,251.573517 
	C231.589188,238.141586 236.522232,225.994568 241.366486,214.066193 
	C245.704559,213.673630 250.029526,213.282242 254.308228,212.895035 
	C260.144073,227.111053 265.849030,241.008163 271.912537,255.778778 
	C271.912537,241.146545 271.912537,227.338654 271.912537,214.299484 
	C279.087219,213.843719 285.775635,213.543488 292.439819,212.964279 
	C300.943939,212.225174 307.756134,218.409500 309.707886,223.473007 
	C312.583221,230.932541 309.829285,240.010834 303.380402,244.144547 
	C302.427521,244.755341 301.624542,245.599991 300.127136,246.864151 
	C303.817688,251.294510 307.646820,255.891251 311.521332,260.542480 
	C313.234070,257.744720 314.403015,253.481094 316.753815,252.678253 
	C318.965454,251.922913 322.316925,255.281937 325.362213,255.985428 
	C328.821228,256.784485 332.496521,256.776917 336.079041,256.790497 
	C336.712341,256.792908 337.928070,255.136856 337.864960,254.325180 
	C337.744385,252.773346 337.345642,250.662857 336.266449,249.876541 
	C333.251251,247.679611 329.893433,245.916061 326.556244,244.205002 
	C317.499786,239.561600 313.364258,231.507401 316.164551,223.686966 
	C318.852692,216.179703 329.490234,210.302765 337.841919,212.129272 
	C342.672455,213.185684 347.338501,214.994171 352.644897,216.639832 
	C350.404785,221.071228 348.672607,224.497833 347.085571,227.637314 
	C342.516510,226.688797 338.466736,225.483459 334.349152,225.170349 
	C332.670868,225.042740 330.845398,226.850784 329.086914,227.778168 
	C330.094330,229.375381 330.732849,231.595947 332.178986,232.451782 
	C336.354004,234.922607 340.854401,236.843536 345.674835,239.260223 
	C347.018829,240.700729 347.915009,241.861435 349.062317,243.176529 
	C349.862518,243.534622 350.411682,243.738312 351.041626,244.327515 
	C353.504852,250.211868 353.567291,255.706223 350.911652,261.445801 
	C350.213348,262.770447 349.693756,263.844971 348.958527,265.157837 
	C348.490753,265.984314 348.238617,266.572418 347.986481,267.160492 
M294.998444,234.383774 
	C295.016571,234.219803 295.064636,234.052795 295.048340,233.892319 
	C294.772858,231.177139 295.353668,227.802124 293.940094,225.952698 
	C292.762970,224.412643 289.242462,224.663742 286.759918,224.121490 
	C286.508820,226.268799 286.232727,228.413620 286.019409,230.564682 
	C285.938385,231.381729 286.068695,232.219635 285.988647,233.036865 
	C285.458527,238.447342 285.859955,238.796219 291.067963,237.016998 
	C292.399170,236.562210 293.629425,235.811859 294.998444,234.383774 
M250.061707,238.309601 
	C249.503372,236.811417 248.945038,235.313232 247.918533,232.558823 
	C245.927124,237.892166 244.495407,241.726578 242.871231,246.076401 
	C246.478195,246.076401 249.583496,246.076401 253.318604,246.076401 
	C252.210556,243.333572 251.329910,241.153671 250.061707,238.309601 
z"/>
<path fill="#EF503E" opacity="1.000000" stroke="none" 
	d="
M348.228424,267.503479 
	C348.238617,266.572418 348.490753,265.984314 349.374268,265.158264 
	C356.270325,265.307617 361.700043,263.380646 365.267853,258.144806 
	C369.294617,252.235580 374.838409,248.755508 381.124542,245.708130 
	C387.074188,242.823898 392.543457,238.931732 398.133698,235.342270 
	C398.942108,234.823196 399.245789,233.518143 399.905731,232.361786 
	C398.337738,231.510788 397.127136,230.853745 394.949127,229.671661 
	C397.134521,227.895706 400.342560,225.591568 400.199371,225.360062 
	C397.564850,221.100433 402.313660,220.294495 403.456696,217.921021 
	C403.961761,216.872238 404.640137,215.906891 405.239807,214.903671 
	C397.878876,216.062408 391.395508,219.171799 384.624969,220.038956 
	C376.200287,221.117966 370.371643,225.970596 364.219147,230.691147 
	C359.001221,234.694641 353.941162,238.903915 348.811218,243.022125 
	C347.915009,241.861435 347.018829,240.700729 346.042389,239.228088 
	C357.602661,234.057083 365.498871,223.955170 375.987579,217.486237 
	C376.922180,216.909851 378.265564,215.838211 378.899719,216.129044 
	C382.000305,217.551071 384.025146,215.602448 386.364044,214.327255 
	C388.104767,213.378174 389.346100,212.885376 391.806183,214.339752 
	C393.797485,215.516968 397.845093,213.361557 400.928497,212.498230 
	C403.258392,211.845901 405.480560,210.374786 407.798950,210.262192 
	C409.441742,210.182419 411.165100,211.762039 412.852509,212.600937 
	C412.143219,213.975189 411.681458,215.582199 410.662750,216.665482 
	C409.352722,218.058563 407.595886,219.031403 405.695526,220.433060 
	C411.053528,226.056091 404.050568,227.166748 402.292297,230.591934 
	C403.872833,231.298386 405.399414,231.980728 407.871063,233.085464 
	C405.610107,235.140137 403.944916,237.352859 401.729980,238.539047 
	C394.192505,242.575684 386.330444,246.015549 378.864685,250.172440 
	C375.640381,251.967712 372.175262,254.433472 370.393524,257.507050 
	C365.319763,266.259705 357.991943,269.099030 348.228424,267.503479 
z"/>
<path fill="#FEAB4F" opacity="1.000000" stroke="none" 
	d="
M349.062317,243.176544 
	C353.941162,238.903915 359.001221,234.694641 364.219147,230.691147 
	C370.371643,225.970596 376.200287,221.117966 384.624969,220.038956 
	C391.395508,219.171799 397.878876,216.062408 405.239807,214.903671 
	C404.640137,215.906891 403.961761,216.872238 403.456696,217.921021 
	C402.313660,220.294495 397.564850,221.100433 400.199371,225.360062 
	C400.342560,225.591568 397.134521,227.895706 394.949127,229.671661 
	C397.127136,230.853745 398.337738,231.510788 399.905731,232.361786 
	C399.245789,233.518143 398.942108,234.823196 398.133698,235.342270 
	C392.543457,238.931732 387.074188,242.823898 381.124542,245.708130 
	C374.838409,248.755508 369.294617,252.235580 365.267853,258.144806 
	C361.700043,263.380646 356.270325,265.307617 349.589905,264.919861 
	C349.693756,263.844971 350.213348,262.770447 351.306763,261.424622 
	C359.182556,260.892365 361.859436,255.594421 364.456055,249.743835 
	C373.366669,244.641312 381.977051,239.677017 391.475464,234.200729 
	C388.488007,233.054688 387.048248,232.502365 385.052032,231.736572 
	C388.668060,228.196426 391.833313,225.097580 395.051270,221.976837 
	C395.104004,221.954926 395.001251,222.001831 394.600159,221.988220 
	C383.934601,224.713974 373.196289,226.199036 364.936066,233.961807 
	C361.580048,237.115738 357.817383,239.836975 353.898254,242.834503 
	C352.691467,243.256607 351.826141,243.599304 350.960815,243.942001 
	C350.411682,243.738312 349.862518,243.534622 349.062317,243.176544 
z"/>
<path fill="#EF503E" opacity="1.000000" stroke="none" 
	d="
M351.041626,244.327515 
	C351.826141,243.599304 352.691467,243.256607 354.261139,242.901581 
	C359.149414,243.747589 363.258942,244.703674 364.155792,249.882065 
	C361.859436,255.594421 359.182556,260.892365 351.485504,261.174500 
	C353.567291,255.706223 353.504852,250.211868 351.041626,244.327515 
z"/>
<path fill="#000000" opacity="1.000000" stroke="none" 
	d="
M294.952271,234.790543 
	C293.629425,235.811859 292.399170,236.562210 291.067963,237.016998 
	C285.859955,238.796219 285.458527,238.447342 285.988647,233.036865 
	C286.068695,232.219635 285.938385,231.381729 286.019409,230.564682 
	C286.232727,228.413620 286.508820,226.268799 286.759888,224.121490 
	C289.242462,224.663742 292.762970,224.412643 293.940094,225.952698 
	C295.353668,227.802124 294.772858,231.177139 295.048340,233.892319 
	C295.064636,234.052795 295.016571,234.219803 294.952271,234.790543 
z"/>
<path fill="#000000" opacity="1.000000" stroke="none" 
	d="
M250.255493,238.641693 
	C251.329910,241.153671 252.210556,243.333572 253.318604,246.076401 
	C249.583496,246.076401 246.478195,246.076401 242.871231,246.076401 
	C244.495407,241.726578 245.927124,237.892166 247.918533,232.558823 
	C248.945038,235.313232 249.503372,236.811417 250.255493,238.641693 
z"/>
<path fill="#FFD382" opacity="1.000000" stroke="none" 
	d="
M364.456055,249.743835 
	C363.258942,244.703674 359.149414,243.747589 354.602600,242.822174 
	C357.817383,239.836975 361.580048,237.115738 364.936066,233.961807 
	C373.196289,226.199036 383.934601,224.713974 394.599518,221.987305 
	C395.000000,222.000000 394.998566,221.998718 394.998566,221.998718 
	C391.833313,225.097580 388.668060,228.196426 385.052032,231.736572 
	C387.048248,232.502365 388.488007,233.054688 391.475464,234.200729 
	C381.977051,239.677017 373.366669,244.641312 364.456055,249.743835 
z"/>
<path fill="#FFD382" opacity="1.000000" stroke="none" 
	d="
M395.000610,222.000916 
	C395.001251,222.001831 395.104004,221.954926 395.051270,221.976822 
	C394.998566,221.998718 395.000000,222.000000 395.000610,222.000916 
z"/>
</svg>